<?xml version="1.0" encoding="iso-8859-1"?>
<!-- Generator: Adobe Illustrator 18.1.1, SVG Export Plug-In . SVG Version: 6.00 Build 0)  -->
<svg version="1.1" id="Capa_1" xmlns="http://www.w3.org/2000/svg" xmlns:xlink="http://www.w3.org/1999/xlink" x="0px" y="0px"
	 viewBox="0 0 338.563 338.563" style="enable-background:new 0 0 338.563 338.563;" xml:space="preserve">
<g>
	<g id="Layer_5_46_">
		<g>
			<path d="M323.462,28.143H173.096c-8.307,0-15.103,6.796-15.103,15.102v69.243c0,8.306-6.796,15.102-15.103,15.102
				c0,0-10.02,0-12.359,0c-6.125,0-5.745-6.833-5.745-6.833v-45.5c0-4.95-4.05-9-9-9H64.801c-4.951,0-9,4.05-9,9v46.124
				c0,0,0.108,6.209-6.142,6.209c-7.889,0-34.557,0-34.557,0C6.796,127.59,0,134.387,0,142.693V257c0,4.909,2.374,9.288,6.03,12.05
				c1.393,1.052,5.126,3.052,5.773-4.229c2.229-21.689,23.396-39.666,50.003-39.666c19.203,0,34.398,11.593,44.778,26.249
				c2.197,3.103,4.697,3.228,6.457,0.248c9.183-15.55,25.612-26.498,44.917-26.497c25.011,0,45.891,17.977,50.425,41.685
				c0.331,1.725,0.523,5.262,4.523,5.262c8.042,0,10.609,0,17.875,0c4.875,0,4.56-5.604,4.749-7.494
				c2.89-29.021,27.449-51.761,57.218-51.76c15.016,0,28.703,5.789,38.953,15.25c2.502,2.308,6.862,7.41,6.862-2.84V43.245
				C338.565,34.939,331.769,28.143,323.462,28.143z M295.655,141.445c0,6.05-4.95,11-11,11h-68.612c-6.05,0-11-4.95-11-11V73.995
				c0-6.05,4.95-11,11-11h68.612c6.05,0,11,4.95,11,11V141.445z"/>
			<circle cx="61.807" cy="276.504" r="32.2"/>
			<circle cx="157.96" cy="276.504" r="32.2"/>
			<circle cx="292.751" cy="271.35" r="39.069"/>
		</g>
	</g>
</g>
<g>
</g>
<g>
</g>
<g>
</g>
<g>
</g>
<g>
</g>
<g>
</g>
<g>
</g>
<g>
</g>
<g>
</g>
<g>
</g>
<g>
</g>
<g>
</g>
<g>
</g>
<g>
</g>
<g>
</g>
</svg>
