<?xml version="1.0" encoding="iso-8859-1"?>
<!-- Generator: Adobe Illustrator 18.1.1, SVG Export Plug-In . SVG Version: 6.00 Build 0)  -->
<svg version="1.1" id="Capa_1" xmlns="http://www.w3.org/2000/svg" xmlns:xlink="http://www.w3.org/1999/xlink" x="0px" y="0px"
	 viewBox="0 0 432.061 432.061" style="enable-background:new 0 0 432.061 432.061;" xml:space="preserve">
<g>
	<g id="Layer_5_34_">
		<g>
			<path d="M298.252,106.39c-21.795-8.117-23.19,21.241-41.453,9.906c-12.604-7.822-7.41-17.6-19.636-25.926
				c-10.289-7.007-36.902,16.005-41.802,21.978c-3.734,4.553-5.408,13.575,12.162,19.606c2.119,0.695,1.69,1.581,1.653,2.047
				c-0.038,0.466-0.049,0.938-0.028,1.418c0.283,6.658,5.91,11.826,12.568,11.543c4.719-0.201,8.679-3.091,10.487-7.125
				c0.203-0.453,0.704-1.459,2.415-0.957l27.749,6.498c1.831,0.5,1.286,1.496,1.112,2.066c-0.387,1.267-0.57,2.617-0.511,4.016
				c0.283,6.658,5.91,11.825,12.568,11.542c5.727-0.243,10.339-4.443,11.337-9.85c0.12-0.647,0.311-2.214,1.918-1.586l3.752,0.878
				c10.548,2.471,17.341-4.958,19.812-15.506C314.825,126.391,309.289,110.502,298.252,106.39z"/>
			<path d="M419.068,336.813c-45.08-60.765-100.927-165.235-208.784-169.293c-108.777,4.092-164.3,108.671-209.55,170.306
				c-0.509,0.693-2.121,5.178,2.046,5.178c11.188,0,39.083,0,39.083,0c12.875,0,22.547-35.854,45.745-72.147
				c1.057-1.653,3.248-5.164,3.248,1.836v64.353c0,2.75,2.25,5,5,5h6.208c2.75,0,5-2.25,5-5v-89.603c0-3,1.474-4.487,2.224-5.317
				c13.882-15.353,30.926-28.84,52.184-37.202c1.181-0.465,3.583-1.23,3.583,2.359v129.763c0,2.75,2.25,5,5,5h6.207
				c2.75,0,5-2.25,5-5V202.692c0-3.667,2.413-4.202,3.637-4.427c7.959-1.466,16.401-2.271,25.386-2.271
				c8.772,0,17.025,0.746,24.814,2.111c1.399,0.245,4.154,0.586,4.154,3.937v135.002c0,2.75,2.25,5,5,5h6.207c2.75,0,5-2.25,5-5
				v-130.52c0-3.833,2.343-2.303,3.495-1.86c20.998,8.048,37.874,21.001,51.671,35.84c0.956,1.028,2.824,2.313,2.824,6.267v90.273
				c0,2.75,2.25,5,5,5h6.208c2.75,0,5-2.25,5-5v-67.853c0-4.125,1.357-2.65,2.021-1.647c24.751,37.392,35.934,75.459,49.434,75.459
				h36.25C423.363,343.004,419.964,338.02,419.068,336.813z"/>
			<path d="M428.592,207.109c-13.609-18.859-32.025,2.321-40.909-17.25c-6.132-13.508,4.56-16.299-0.978-30.014
				c-4.661-11.544-39.575-7.201-46.967-4.958c-5.798,1.759-12.399,8.776,0.177,24.374c1.186,1.534,0.026,2.43-0.504,2.938
				c-2.103,2.014-3.488,4.785-3.689,7.92c-0.426,6.65,4.62,12.387,11.271,12.813c3.39,0.217,6.538-0.988,8.87-3.103
				c0.5-0.454,1.846-1.445,2.826,0.062l19.474,20.839c1.293,1.516,0.287,2.201-0.286,2.56c-3.176,1.989-5.384,5.418-5.642,9.444
				c-0.426,6.65,4.62,12.387,11.271,12.813c4.277,0.273,8.176-1.718,10.526-4.943c0.401-0.551,1.574-1.505,2.494-0.225l1.728,1.85
				c7.397,7.915,17.174,5.514,25.089-1.883C431.256,232.948,435.483,216.661,428.592,207.109z"/>
		</g>
	</g>
</g>
<g>
</g>
<g>
</g>
<g>
</g>
<g>
</g>
<g>
</g>
<g>
</g>
<g>
</g>
<g>
</g>
<g>
</g>
<g>
</g>
<g>
</g>
<g>
</g>
<g>
</g>
<g>
</g>
<g>
</g>
</svg>
