<?xml version="1.0" encoding="iso-8859-1"?>
<!-- Generator: Adobe Illustrator 19.0.0, SVG Export Plug-In . SVG Version: 6.00 Build 0)  -->
<svg version="1.1" id="Capa_1" xmlns="http://www.w3.org/2000/svg" xmlns:xlink="http://www.w3.org/1999/xlink" x="0px" y="0px"
	 viewBox="0 0 468.7 468.7" style="enable-background:new 0 0 468.7 468.7;" xml:space="preserve">
<path id="XMLID_66_" d="M463.091,413.719v-63.364c0-4.971-4.029-9-9-9h-2.451V149.321c5.268-6.297,8.445-14.415,8.445-23.262v-5.108
	c4.791-0.202,8.614-4.151,8.614-8.992V75.364c0-4.971-4.029-9-9-9h-82.523L238.137,1.882c-2.401-1.114-5.172-1.114-7.573,0
	L91.524,66.364H9c-4.971,0-9,4.029-9,9v36.595c0,4.841,3.822,8.79,8.613,8.992v5.108c0,8.848,3.177,16.966,8.447,23.264v192.033
	h-2.449c-4.971,0-9,4.029-9,9v63.363c-3.291,1.339-5.61,4.568-5.61,8.34v36.595c0,4.971,4.029,9,9,9H459.7c4.971,0,9-4.029,9-9
	v-36.595C468.7,418.288,466.381,415.058,463.091,413.719z M18,84.364h75.51c1.308,0,2.6-0.285,3.787-0.835l137.054-63.561
	l137.054,63.561c1.187,0.55,2.479,0.835,3.787,0.835h75.508v18.595h-53.796H18V84.364z M98.89,162.283
	c10.781,0,20.473-4.768,27.092-12.315c0.673,0.768,1.377,1.505,2.112,2.213V254.77h-14.815v-22.616
	c0-17.793-12.706-32.675-29.521-36.048l-2.355-9.649c-1.179-4.829-6.05-7.789-10.877-6.609c-4.829,1.178-7.788,6.048-6.609,10.877
	l3.275,13.42l-10.526,35.018c-0.819,2.726-0.301,5.678,1.397,7.961s4.376,3.629,7.222,3.629h29.994l-0.009,72.396
	c0,3.248,1.75,6.244,4.579,7.839c2.828,1.594,6.297,1.543,9.078-0.138l40.774-24.653l40.772,24.653
	c2.779,1.681,6.249,1.733,9.078,0.138c2.829-1.596,4.579-4.591,4.579-7.839v-31.616c0-20.271-16.492-36.763-36.764-36.763h-21.272
	v-93.167c2.26,0.446,4.593,0.68,6.981,0.68c10.78,0,20.472-4.77,27.091-12.315c6.619,7.545,16.312,12.315,27.091,12.315
	c6.588,0,12.771-1.781,18.093-4.889v183.961H35.061V160.969c3.071,0.856,6.306,1.313,9.646,1.313
	c10.781,0,20.473-4.768,27.092-12.315C78.417,157.515,88.108,162.283,98.89,162.283z M80.798,126.059v-5.1h36.183v5.1
	c0,10.049-8.116,18.224-18.091,18.224C88.914,144.283,80.798,136.108,80.798,126.059z M167.365,272.77
	c10.346,0,18.764,8.417,18.764,18.763v15.657l-31.772-19.211c-2.863-1.731-6.45-1.732-9.313,0l-31.774,19.211v-34.42H167.365z
	 M134.981,126.059v-5.1h36.185v5.1c0,10.049-8.116,18.224-18.091,18.224C143.098,144.283,134.981,136.108,134.981,126.059z
	 M95.278,232.154v0.599H77.387l5.487-18.254C90.1,217.11,95.278,224.038,95.278,232.154z M189.166,126.059v-5.1h36.184v5.1
	c0,10.049-8.116,18.224-18.092,18.224C197.282,144.283,189.166,136.108,189.166,126.059z M62.798,126.059
	c0,10.049-8.116,18.224-18.092,18.224c-9.977,0-18.093-8.175-18.093-18.224v-5.1h36.185V126.059z M34.412,359.356l36.545,53.703
	H23.611v-53.703H34.412z M56.184,359.356h64.577L88.062,406.2L56.184,359.356z M137.827,366.354l30.963,46.705h-63.565
	L137.827,366.354z M154.784,359.356h62.556l-31.687,46.563L154.784,359.356z M234.351,366.353l31.782,46.706h-63.566
	L234.351,366.353z M333.717,126.059c0,10.049-8.116,18.224-18.091,18.224c-9.976,0-18.092-8.175-18.092-18.224v-5.1h36.183V126.059z
	 M355.432,272.77v34.42l-31.773-19.211c-1.432-0.866-3.044-1.298-4.657-1.298s-3.225,0.433-4.657,1.298l-31.773,19.211v-15.657
	c0-10.346,8.417-18.763,18.764-18.763H355.432z M315.625,162.283c2.388,0,4.721-0.233,6.98-0.68v93.167h-21.27
	c-20.271,0-36.764,16.492-36.764,36.763v31.616c0,3.248,1.75,6.244,4.579,7.839c2.828,1.594,6.298,1.543,9.078-0.138l40.773-24.653
	l40.773,24.653c2.78,1.681,6.249,1.733,9.078,0.138c2.829-1.596,4.579-4.591,4.579-7.839l-0.008-72.396h29.996
	c2.846,0,5.524-1.346,7.222-3.63c1.698-2.284,2.216-5.236,1.397-7.961l-10.527-35.018l3.275-13.419
	c1.179-4.829-1.78-9.699-6.609-10.877c-4.826-1.18-9.699,1.78-10.877,6.609l-2.355,9.649c-16.815,3.373-29.521,18.254-29.521,36.048
	v22.616h-14.817V152.18c0.734-0.708,1.438-1.446,2.111-2.212c6.619,7.547,16.312,12.315,27.093,12.315s20.473-4.768,27.092-12.315
	c6.619,7.547,16.311,12.315,27.092,12.315c3.339,0,6.574-0.458,9.646-1.313v180.386h-190.29V157.395
	c5.322,3.107,11.504,4.888,18.092,4.888c10.78,0,20.472-4.77,27.091-12.315C295.153,157.513,304.845,162.283,315.625,162.283z
	 M373.423,232.753v-0.599c0-8.116,5.178-15.044,12.404-17.655l5.488,18.254H373.423z M351.717,126.059v-5.1h36.186v5.1
	c0,10.049-8.116,18.224-18.092,18.224C359.833,144.283,351.717,136.108,351.717,126.059z M405.903,126.059v-5.1h36.183v5.1
	c0,10.049-8.115,18.224-18.091,18.224C414.019,144.283,405.903,136.108,405.903,126.059z M279.534,126.059
	c0,10.049-8.116,18.224-18.091,18.224c-9.977,0-18.093-8.175-18.093-18.224v-5.1h36.184V126.059z M251.361,359.356h63.567
	l-31.785,46.706L251.361,359.356z M331.939,366.353l31.784,46.706h-63.568L331.939,366.353z M348.95,359.356h63.567l-31.783,46.706
	L348.95,359.356z M434.29,359.356h10.801v53.703h-47.346L434.29,359.356z M450.7,449.654H18.001v-18.595H450.7V449.654z"/>
<g>
</g>
<g>
</g>
<g>
</g>
<g>
</g>
<g>
</g>
<g>
</g>
<g>
</g>
<g>
</g>
<g>
</g>
<g>
</g>
<g>
</g>
<g>
</g>
<g>
</g>
<g>
</g>
<g>
</g>
</svg>
