<?xml version="1.0" encoding="iso-8859-1"?>
<!-- Generator: Adobe Illustrator 19.0.0, SVG Export Plug-In . SVG Version: 6.00 Build 0)  -->
<svg version="1.1" id="Capa_1" xmlns="http://www.w3.org/2000/svg" xmlns:xlink="http://www.w3.org/1999/xlink" x="0px" y="0px"
	 viewBox="0 0 463 463" style="enable-background:new 0 0 463 463;" xml:space="preserve">
<path d="M462.992,191.33c-0.004-0.154-0.01-0.308-0.023-0.461c-0.009-0.11-0.023-0.218-0.036-0.326
	c-0.017-0.127-0.035-0.253-0.058-0.379c-0.023-0.128-0.05-0.255-0.08-0.38c-0.025-0.104-0.051-0.207-0.08-0.309
	c-0.039-0.137-0.081-0.273-0.127-0.407c-0.032-0.092-0.065-0.183-0.1-0.274c-0.052-0.134-0.107-0.266-0.167-0.396
	c-0.042-0.092-0.086-0.183-0.132-0.274c-0.061-0.12-0.124-0.237-0.19-0.353c-0.057-0.1-0.117-0.198-0.179-0.295
	c-0.064-0.1-0.129-0.198-0.197-0.294c-0.076-0.107-0.154-0.212-0.236-0.315c-0.064-0.082-0.13-0.162-0.197-0.241
	c-0.092-0.107-0.187-0.211-0.285-0.314c-0.069-0.071-0.138-0.141-0.21-0.21c-0.101-0.097-0.205-0.192-0.312-0.284
	c-0.082-0.07-0.165-0.138-0.25-0.205c-0.101-0.079-0.203-0.157-0.309-0.231c-0.105-0.074-0.212-0.144-0.321-0.213
	c-0.092-0.058-0.185-0.116-0.28-0.17c-0.132-0.076-0.268-0.146-0.405-0.214c-0.054-0.027-0.104-0.058-0.158-0.083L239,82.719V71.006
	h80.5c3.034,0,5.768-1.827,6.929-4.63c1.161-2.803,0.519-6.028-1.626-8.173l-18.697-18.697l18.697-18.697
	c2.145-2.145,2.787-5.371,1.626-8.173c-1.161-2.803-3.896-4.63-6.929-4.63H239v-0.5c0-4.142-3.358-7.5-7.5-7.5s-7.5,3.358-7.5,7.5
	v75.213L4.342,184.703c-0.055,0.025-0.105,0.057-0.159,0.083c-0.137,0.068-0.272,0.138-0.405,0.213
	c-0.096,0.055-0.189,0.113-0.282,0.171c-0.108,0.068-0.215,0.138-0.319,0.212c-0.107,0.075-0.21,0.153-0.312,0.233
	c-0.084,0.066-0.166,0.133-0.247,0.202c-0.108,0.093-0.214,0.188-0.316,0.287c-0.07,0.067-0.138,0.136-0.206,0.206
	c-0.1,0.104-0.196,0.209-0.289,0.318c-0.066,0.077-0.13,0.156-0.194,0.236c-0.083,0.105-0.163,0.211-0.239,0.32
	c-0.067,0.094-0.13,0.19-0.193,0.288c-0.063,0.099-0.125,0.2-0.183,0.302c-0.065,0.114-0.127,0.229-0.187,0.347
	c-0.047,0.093-0.092,0.186-0.135,0.281c-0.058,0.128-0.113,0.258-0.164,0.389c-0.036,0.093-0.07,0.187-0.103,0.281
	c-0.045,0.132-0.087,0.265-0.125,0.4c-0.03,0.105-0.056,0.21-0.081,0.316c-0.029,0.124-0.056,0.248-0.079,0.374
	c-0.023,0.127-0.042,0.255-0.059,0.384c-0.014,0.107-0.027,0.214-0.036,0.322c-0.013,0.154-0.02,0.308-0.023,0.464
	C0.007,191.39,0,191.447,0,191.506v14.624c0,20.912,15.657,38.786,35.645,40.692c11.119,1.06,22.207-2.615,30.42-10.083
	c2.037-1.852,3.858-3.901,5.446-6.102c5.782,7.975,14.464,13.71,24.489,15.646v57.723H79.5h-24c-12.958,0-23.5,10.542-23.5,23.5v32
	c0,4.142,3.358,7.5,7.5,7.5s7.5-3.358,7.5-7.5v-32c0-4.687,3.813-8.5,8.5-8.5h2.097c-1.027,2.638-1.597,5.503-1.597,8.5v64
	c0,4.142,3.358,7.5,7.5,7.5s7.5-3.358,7.5-7.5c0-17.92,14.58-32.5,32.5-32.5s32.5,14.58,32.5,32.5c0,4.142,3.358,7.5,7.5,7.5
	s7.5-3.358,7.5-7.5v-56.5h5.401c4.968,0,9.669-2.406,12.574-6.437c2.905-4.031,3.702-9.251,2.131-13.965l-12.49-37.47
	c-1.021-3.063-3.887-5.128-7.115-5.128c-14.851,0-24.123,10.81-31.572,19.496c-3.425,3.994-6.259,7.174-8.928,9.332v-54.551
	c10.031-1.937,18.718-7.678,24.5-15.661c7.183,9.916,18.847,16.384,32,16.384s24.817-6.468,32-16.384
	c0.169,0.233,0.336,0.467,0.51,0.696c-0.002,0.063-0.01,0.125-0.01,0.188v184.5H39.5c-12.958,0-23.5,10.542-23.5,23.5v15.989
	c0,4.142,3.358,7.5,7.5,7.5h416c4.142,0,7.5-3.358,7.5-7.5v-15.989c0-12.958-10.542-23.5-23.5-23.5H263v-184.5
	c0-0.063-0.008-0.125-0.01-0.188c0.174-0.229,0.341-0.463,0.51-0.696c7.183,9.916,18.847,16.384,32,16.384s24.817-6.468,32-16.384
	c5.783,7.983,14.469,13.724,24.5,15.661v57.723h-16.5h-24c-12.958,0-23.5,10.542-23.5,23.5v32c0,4.142,3.358,7.5,7.5,7.5
	s7.5-3.358,7.5-7.5v-32c0-4.687,3.813-8.5,8.5-8.5h2.097c-1.027,2.638-1.597,5.503-1.597,8.5v64c0,4.142,3.358,7.5,7.5,7.5
	s7.5-3.358,7.5-7.5c0-17.92,14.58-32.5,32.5-32.5c17.92,0,32.5,14.58,32.5,32.5c0,4.142,3.358,7.5,7.5,7.5s7.5-3.358,7.5-7.5v-56.5
	h5.4c4.969,0,9.669-2.407,12.575-6.438c2.905-4.031,3.701-9.251,2.13-13.964l-12.49-37.47c-1.021-3.063-3.887-5.128-7.115-5.128
	c-14.851,0-24.123,10.81-31.572,19.496c-3.425,3.994-6.259,7.174-8.928,9.332v-54.551c10.025-1.936,18.706-7.671,24.489-15.646
	c1.588,2.201,3.409,4.25,5.446,6.102c7.284,6.623,16.828,10.262,26.649,10.262c1.254,0,2.513-0.06,3.771-0.179
	C447.343,244.915,463,227.041,463,206.129v-14.624C463,191.446,462.993,191.389,462.992,191.33z M69.276,184.006H41.464
	l97.343-45.195L69.276,184.006z M185.34,126.455l-53.123,57.55H96.801L185.34,126.455z M214.626,116.843l-20.665,67.162H152.63
	L214.626,116.843z M231.5,113.009l21.845,70.997h-43.69L231.5,113.009z M207,207.506v-8.5h49v8.5c0,13.509-10.991,24.5-24.5,24.5
	S207,221.015,207,207.506z M269.039,184.006l-20.665-67.162l61.996,67.162H269.039z M330.784,184.006l-53.124-57.551l88.54,57.551
	H330.784z M393.724,184.006l-69.531-45.195l97.343,45.195H393.724z M301.394,23.006l-11.197,11.197
	c-2.929,2.929-2.929,7.678,0,10.606l11.197,11.197H239v-33H301.394z M55.975,225.64c-5.169,4.699-11.883,6.923-18.906,6.249
	C24.694,230.709,15,219.394,15,206.129v-7.124h49v8.5C64,214.393,61.075,221.003,55.975,225.64z M131.314,301.267
	c5.753-6.708,10.105-11.425,15.092-13.327l10.469,31.408c0.026,0.079,0.081,0.243-0.069,0.451c-0.149,0.208-0.322,0.208-0.405,0.208
	H143.5c-4.142,0-7.5,3.358-7.5,7.5v29.389c-8.503-7.989-19.94-12.889-32.5-12.889s-23.997,4.9-32.5,12.889v-29.389
	c0-4.687,3.813-8.5,8.5-8.5h24C116.1,319.006,124.183,309.582,131.314,301.267z M103.5,232.006c-13.509,0-24.5-10.991-24.5-24.5
	v-8.5h49v8.5C128,221.015,117.009,232.006,103.5,232.006z M167.5,232.006c-13.509,0-24.5-10.991-24.5-24.5v-8.5h49v8.5
	C192,221.015,181.009,232.006,167.5,232.006z M432,439.506v8.489H31v-8.489c0-4.687,3.813-8.5,8.5-8.5h384
	C428.188,431.006,432,434.819,432,439.506z M215,416.006V243.381c5.025,2.32,10.612,3.625,16.5,3.625s11.475-1.305,16.5-3.625
	v172.625H215z M295.5,232.006c-13.509,0-24.5-10.991-24.5-24.5v-8.5h49v8.5C320,221.015,309.009,232.006,295.5,232.006z
	 M387.314,301.267c5.753-6.708,10.105-11.425,15.092-13.327l10.469,31.408c0.026,0.079,0.081,0.243-0.068,0.45
	c-0.15,0.208-0.323,0.208-0.406,0.208h-12.9c-4.142,0-7.5,3.358-7.5,7.5v29.389c-8.503-7.989-19.94-12.889-32.5-12.889
	c-12.561,0-23.998,4.9-32.5,12.889v-29.389c0-4.687,3.813-8.5,8.5-8.5h24C372.101,319.006,380.183,309.582,387.314,301.267z
	 M359.5,232.006c-13.509,0-24.5-10.991-24.5-24.5v-8.5h49v8.49c0,0.003,0,0.006,0,0.01C384,221.015,373.009,232.006,359.5,232.006z
	 M448,206.129c0,13.265-9.694,24.58-22.069,25.76c-7.025,0.673-13.737-1.549-18.906-6.249c-5.099-4.636-8.023-11.243-8.025-18.128
	c0-0.002,0-0.004,0-0.006v-8.5h49V206.129z"/>
<g>
</g>
<g>
</g>
<g>
</g>
<g>
</g>
<g>
</g>
<g>
</g>
<g>
</g>
<g>
</g>
<g>
</g>
<g>
</g>
<g>
</g>
<g>
</g>
<g>
</g>
<g>
</g>
<g>
</g>
</svg>
