<?xml version="1.0" encoding="iso-8859-1"?>
<!-- Generator: Adobe Illustrator 19.0.0, SVG Export Plug-In . SVG Version: 6.00 Build 0)  -->
<svg version="1.1" id="Capa_1" xmlns="http://www.w3.org/2000/svg" xmlns:xlink="http://www.w3.org/1999/xlink" x="0px" y="0px"
	 viewBox="0 0 470 470" style="enable-background:new 0 0 470 470;" xml:space="preserve">
<g>
	<path d="M357.398,171.267l-10-60C346.795,107.65,343.666,105,340,105h-82.5V52.5c0-4.136,3.364-7.5,7.5-7.5h75
		c4.143,0,7.5-3.357,7.5-7.5v-30c0-4.143-3.357-7.5-7.5-7.5h-75c-28.948,0-52.5,23.552-52.5,52.5V105H130
		c-3.666,0-6.795,2.65-7.398,6.267l-10,60c-0.362,2.175,0.251,4.399,1.676,6.081C115.702,179.03,117.795,180,120,180h7.878
		l14.632,282.888c0.206,3.986,3.499,7.112,7.49,7.112h170c3.991,0,7.284-3.126,7.49-7.112l14.396-278.331
		c0.002-0.029,0.003-0.059,0.004-0.088l0.231-4.469H350c2.205,0,4.298-0.97,5.723-2.652
		C357.147,175.666,357.761,173.441,357.398,171.267z M227.5,52.5c0-20.678,16.822-37.5,37.5-37.5h67.5v15H265
		c-12.406,0-22.5,10.094-22.5,22.5V105h-15V52.5z M136.354,120h197.293l7.5,45H128.854L136.354,120z M327.102,180l-0.13,2.509
		c-19.876,52.318-60.186,96.163-110.762,120.399c-3.735,1.79-5.313,6.27-3.522,10.005c1.289,2.69,3.973,4.261,6.769,4.261
		c1.087,0,2.191-0.237,3.236-0.738c27.196-13.033,51.356-30.95,71.809-53.253c11.727-12.788,21.897-26.663,30.444-41.484
		l-3.929,75.968c-30.766,66.5-93.597,113.793-165.562,125.087l-4.408-85.231c14.238-1.806,28.316-4.91,41.943-9.272
		c3.945-1.263,6.12-5.484,4.856-9.43s-5.487-6.122-9.429-4.855c-12.399,3.969-25.2,6.816-38.149,8.526L142.898,180H327.102z
		 M157.122,455l-0.889-17.188c37.8-5.657,73.856-20.58,104.679-43.392c23.126-17.115,42.897-38.369,58.329-62.45L312.878,455
		H157.122z"/>
</g>
<g>
</g>
<g>
</g>
<g>
</g>
<g>
</g>
<g>
</g>
<g>
</g>
<g>
</g>
<g>
</g>
<g>
</g>
<g>
</g>
<g>
</g>
<g>
</g>
<g>
</g>
<g>
</g>
<g>
</g>
</svg>
