<?xml version="1.0" encoding="iso-8859-1"?>
<!-- Generator: Adobe Illustrator 18.0.0, SVG Export Plug-In . SVG Version: 6.00 Build 0)  -->
<!DOCTYPE svg PUBLIC "-//W3C//DTD SVG 1.1//EN" "http://www.w3.org/Graphics/SVG/1.1/DTD/svg11.dtd">
<svg version="1.1" id="Capa_1" xmlns="http://www.w3.org/2000/svg" xmlns:xlink="http://www.w3.org/1999/xlink" x="0px" y="0px"
	 viewBox="0 0 278.169 278.169" style="enable-background:new 0 0 278.169 278.169;" xml:space="preserve">
<g>
	<path d="M251.202,70.035c-1.825-2.187-4.526-3.45-7.375-3.45h-30.904l-29.206,211.584h25.197c4.644,0,8.622-3.321,9.452-7.891
		l34.913-192.371C253.788,75.104,253.026,72.221,251.202,70.035z"/>
	<path d="M34.342,66.585c-2.849,0-5.55,1.264-7.375,3.45c-1.824,2.186-2.587,5.069-2.077,7.872l34.913,192.371
		c0.83,4.569,4.808,7.891,9.452,7.891h25.195L65.246,66.585H34.342z"/>
	<path d="M46.115,54.493c0.71,0,1.427-0.085,2.129-0.254c0.713-0.171,1.406-0.439,2.13-0.823c1.038-0.552,2.164-0.818,3.281-0.818
		c1.918,0,3.808,0.787,5.169,2.276c4.771,5.218,11.53,8.21,18.546,8.21c1.969,0,3.95-0.236,5.888-0.702
		c4.97-1.193,9.343-3.87,12.676-7.531c-1.81-3.77-3.041-7.833-3.576-12.062c-0.159-0.083-0.317-0.168-0.474-0.255
		C81.389,36.735,77.186,23.875,81.9,13.073c-1.471-0.273-2.971-0.418-4.485-0.418c-1.971,0-3.952,0.236-5.892,0.702
		c-8.893,2.139-15.934,8.962-18.377,17.807c-0.85,3.079-3.686,5.208-6.87,5.136l-0.179-0.002c-0.726,0-1.434,0.081-2.105,0.24
		c-4.849,1.167-7.859,6.093-6.689,10.976C38.288,51.623,41.912,54.493,46.115,54.493z"/>
	<path d="M153.13,60.041c0.602,0.566,1.2,1.01,1.831,1.357c1.374,0.759,2.842,1.141,4.377,1.141c3.31,0,6.36-1.804,7.961-4.707
		c2.42-4.396,0.821-9.949-3.565-12.373c-0.638-0.354-1.333-0.624-2.138-0.833c-3.083-0.8-5.237-3.579-5.242-6.764
		c-0.015-9.183-4.999-17.637-13.006-22.065c-3.582-1.979-7.464-3.031-11.537-3.127c-2.986-0.07-5.599-2.028-6.505-4.875
		C123.821,3.133,119.544,0,114.662,0c-5.257,0-9.853,3.735-10.926,8.882c-0.472,2.262-2.03,4.146-4.163,5.033
		c-1.343,0.559-3.208,1.705-4.47,3.992c-2.423,4.4-0.825,9.955,3.563,12.38c0.637,0.354,1.327,0.622,2.122,0.826
		c3.089,0.795,5.251,3.578,5.256,6.768c0.015,9.184,5,17.639,13.011,22.066c3.713,2.052,7.9,3.137,12.107,3.137
		c4.757,0,9.406-1.34,13.444-3.876C147.306,57.514,150.81,57.856,153.13,60.041z"/>
	<path d="M182.25,56.248c4.643,4.352,10.857,6.837,17.193,6.837c2.328,0,4.658-0.33,6.926-0.979
		c3.932-1.126,7.422-3.121,10.374-5.932c2.167-2.063,5.406-2.52,8.061-1.138c1.578,0.822,3.36,1.257,5.154,1.257
		c2.969,0,5.764-1.155,7.868-3.251c3.733-3.721,4.364-9.626,1.5-14.041c-1.256-1.937-1.477-4.367-0.59-6.498
		c0.802-1.927,0.925-4.001,0.355-5.998c-1.11-3.885-4.694-6.601-8.715-6.601c-0.839,0-1.68,0.119-2.499,0.355
		c-0.705,0.198-1.383,0.496-2.107,0.92c-2.752,1.614-6.248,1.161-8.499-1.1c-4.699-4.72-11.189-7.426-17.807-7.426
		c-2.329,0-4.658,0.329-6.925,0.979c-8.79,2.517-15.535,9.64-17.603,18.589c-0.257,1.111-0.783,2.094-1.484,2.918
		C179.976,40.17,183.216,48.284,182.25,56.248z"/>
	<path d="M112.283,72.2c-2.829-1.564-5.4-3.466-7.708-5.615h-0.58c-4.844,4.51-10.813,7.812-17.466,9.409
		c-2.065,0.496-4.166,0.812-6.273,0.969l27.772,201.206h24.333V77.051c-0.399,0.012-0.797,0.033-1.197,0.033
		C124.592,77.084,118.064,75.396,112.283,72.2z"/>
	<path d="M176.097,69.315c-4.306,4.547-10.336,7.224-16.758,7.224c-0.001,0-0.001,0-0.001,0c-3.878,0-7.729-0.997-11.139-2.882
		c-0.148-0.082-0.297-0.166-0.445-0.252c-0.641,0.299-1.289,0.58-1.944,0.843v203.92h24.331l27.761-201.115
		C190.053,76.735,182.403,73.992,176.097,69.315z"/>
</g>
<g>
</g>
<g>
</g>
<g>
</g>
<g>
</g>
<g>
</g>
<g>
</g>
<g>
</g>
<g>
</g>
<g>
</g>
<g>
</g>
<g>
</g>
<g>
</g>
<g>
</g>
<g>
</g>
<g>
</g>
</svg>
