<?xml version="1.0" encoding="iso-8859-1"?>
<!-- Generator: Adobe Illustrator 18.0.0, SVG Export Plug-In . SVG Version: 6.00 Build 0)  -->
<!DOCTYPE svg PUBLIC "-//W3C//DTD SVG 1.1//EN" "http://www.w3.org/Graphics/SVG/1.1/DTD/svg11.dtd">
<svg version="1.1" id="Capa_1" xmlns="http://www.w3.org/2000/svg" xmlns:xlink="http://www.w3.org/1999/xlink" x="0px" y="0px"
	 viewBox="0 0 297.064 297.064" style="enable-background:new 0 0 297.064 297.064;" xml:space="preserve">
<g>
	<path d="M290.376,29.931l-7.13-17.227c-2.78-6.716-9.332-11.096-16.601-11.096H30.432c-7.269,0-13.821,4.38-16.601,11.096
		l-7.13,17.227L2.196,40.816C-3.71,55.085,2.665,71.772,16.888,77.788c3.617,1.53,7.594,2.376,11.768,2.376
		c15.366,0,28.045-11.466,29.971-26.307c1.926,14.841,14.605,26.307,29.971,26.307s28.045-11.466,29.971-26.307
		c1.926,14.841,14.605,26.307,29.971,26.307c15.366,0,28.045-11.466,29.97-26.307c1.926,14.841,14.605,26.307,29.971,26.307
		c15.366,0,28.045-11.466,29.971-26.307c1.926,14.841,14.605,26.307,29.971,26.307c3.734,0,7.31-0.677,10.612-1.915
		c14.914-5.592,21.929-22.74,15.837-37.458L290.376,29.931z"/>
	<path d="M244.928,159.512h-6.39V90.262c-0.029-0.021-0.059-0.042-0.088-0.063c-8.404,6.265-18.791,9.95-29.912,9.963v59.349h-120
		v-59.349c-11.121-0.013-21.507-3.699-29.912-9.963c-0.029,0.022-0.059,0.042-0.088,0.063v69.249h-6.39
		c-11.176,0-20.237,9.061-20.237,20.237v49.378c0,11.176,9.06,20.237,20.237,20.237h6.39v31.085c0,8.284,6.716,15,15,15
		c8.284,0,15-6.716,15-15v-31.085h38.408c0-35.065,28.527-63.592,63.592-63.592c34.326,0,62.369,27.343,63.536,61.391
		c6.576-3.342,11.09-10.154,11.09-18.035v-49.378C265.165,168.573,256.104,159.512,244.928,159.512z"/>
	<path d="M190.538,203.271c-25.415,0-46.092,20.677-46.092,46.093c0,25.415,20.677,46.092,46.092,46.092
		c25.415,0,46.092-20.677,46.092-46.092C236.63,223.948,215.954,203.271,190.538,203.271z M190.538,265.455
		c-8.873,0-16.092-7.219-16.092-16.092c0-8.874,7.219-16.093,16.092-16.093c8.873,0,16.092,7.219,16.092,16.093
		C206.63,258.237,199.412,265.455,190.538,265.455z"/>
</g>
<g>
</g>
<g>
</g>
<g>
</g>
<g>
</g>
<g>
</g>
<g>
</g>
<g>
</g>
<g>
</g>
<g>
</g>
<g>
</g>
<g>
</g>
<g>
</g>
<g>
</g>
<g>
</g>
<g>
</g>
</svg>
