<?xml version="1.0" encoding="iso-8859-1"?>
<!-- Generator: Adobe Illustrator 19.0.0, SVG Export Plug-In . SVG Version: 6.00 Build 0)  -->
<svg version="1.1" id="Capa_1" xmlns="http://www.w3.org/2000/svg" xmlns:xlink="http://www.w3.org/1999/xlink" x="0px" y="0px"
	 viewBox="0 0 463 463" style="enable-background:new 0 0 463 463;" xml:space="preserve">
<g>
	<path d="M327.5,144h-0.831c5.467-12.797,8.331-26.587,8.331-40.5C335,46.43,288.57,0,231.5,0S128,46.43,128,103.5
		c0,13.913,2.863,27.703,8.331,40.5H135.5c-2.366,0-4.593,1.116-6.009,3.013c-1.416,1.896-1.854,4.349-1.182,6.617l88.25,297.994
		c1.876,6.81,7.867,11.376,14.941,11.376c7.075,0,13.065-4.566,14.942-11.376l88.25-297.994c0.672-2.269,0.233-4.722-1.182-6.617
		C332.094,145.116,329.867,144,327.5,144z M278.192,291.586l-0.086-0.085l0.158-0.158L278.192,291.586z M245.291,402.684
		l-3.184-3.184l5.863-5.863L245.291,402.684z M148.448,159h24.945L159.5,172.893l-13.78-13.78c-0.04-0.04-0.084-0.074-0.125-0.113
		H148.448z M317.393,159L303.5,172.893L289.607,159h24.945H317.393z M287.19,261.203l-19.69,19.69L242.107,255.5l25.393-25.393
		l22.296,22.296L287.19,261.203z M173.204,252.404l22.296-22.296l25.393,25.393L195.5,280.893l-19.69-19.69L173.204,252.404z
		 M231.5,266.107l25.393,25.393L231.5,316.893L206.107,291.5L231.5,266.107z M231.5,244.893L206.107,219.5l25.393-25.393
		l25.393,25.393L231.5,244.893z M196.393,159l24.5,24.5L195.5,208.894L170.107,183.5l24.5-24.5H196.393z M242.107,183.5l24.5-24.5
		h1.786l24.5,24.5L267.5,208.893L242.107,183.5z M231.5,172.893L217.607,159h27.787L231.5,172.893z M159.5,194.107l25.393,25.393
		l-16.536,16.536l-11.604-39.183L159.5,194.107z M184.736,291.343l0.157,0.157l-0.085,0.085L184.736,291.343z M195.5,302.107
		l25.393,25.393l-19.635,19.635l-11.604-39.182L195.5,302.107z M215.03,393.637l5.863,5.863l-3.184,3.184L215.03,393.637z
		 M206.107,363.5l25.393-25.393l25.393,25.393L231.5,388.893L206.107,363.5z M261.742,347.135L242.107,327.5l25.393-25.393
		l5.846,5.845L261.742,347.135z M294.643,236.036L278.107,219.5l25.393-25.393l2.747,2.747L294.643,236.036z M143,103.5
		C143,54.701,182.7,15,231.5,15S320,54.701,320,103.5c0,14.049-3.408,27.962-9.889,40.5H152.888
		C146.408,131.462,143,117.549,143,103.5z M231.983,447.63c-0.07,0.262-0.1,0.37-0.483,0.37c-0.383,0-0.413-0.108-0.483-0.37
		c-0.017-0.063-0.034-0.124-0.052-0.187l-8.408-28.393l8.944-8.944l8.944,8.944l-8.408,28.393
		C232.017,447.506,232,447.567,231.983,447.63z"/>
	<path d="M249.37,34.253C243.561,32.758,237.549,32,231.5,32c-4.142,0-7.5,3.357-7.5,7.5s3.358,7.5,7.5,7.5
		c4.789,0,9.543,0.599,14.131,1.78c0.627,0.161,1.256,0.238,1.875,0.238c3.34,0,6.387-2.248,7.258-5.633
		C255.797,39.375,253.382,35.286,249.37,34.253z"/>
	<path d="M278.787,49.869c-3.106-2.741-7.846-2.446-10.586,0.662c-2.74,3.105-2.444,7.846,0.662,10.586
		C281.025,71.848,288,87.296,288,103.5c0,2.365-0.147,4.744-0.438,7.072c-0.513,4.11,2.403,7.858,6.514,8.371
		c0.315,0.039,0.628,0.059,0.938,0.059c3.728,0,6.959-2.777,7.433-6.572c0.367-2.941,0.553-5.946,0.553-8.93
		C303,82.994,294.175,63.446,278.787,49.869z"/>
</g>
<g>
</g>
<g>
</g>
<g>
</g>
<g>
</g>
<g>
</g>
<g>
</g>
<g>
</g>
<g>
</g>
<g>
</g>
<g>
</g>
<g>
</g>
<g>
</g>
<g>
</g>
<g>
</g>
<g>
</g>
</svg>
