<?xml version="1.0" encoding="iso-8859-1"?>
<!-- Generator: Adobe Illustrator 18.0.0, SVG Export Plug-In . SVG Version: 6.00 Build 0)  -->
<!DOCTYPE svg PUBLIC "-//W3C//DTD SVG 1.1//EN" "http://www.w3.org/Graphics/SVG/1.1/DTD/svg11.dtd">
<svg version="1.1" id="Capa_1" xmlns="http://www.w3.org/2000/svg" xmlns:xlink="http://www.w3.org/1999/xlink" x="0px" y="0px"
	 viewBox="0 0 297 297" style="enable-background:new 0 0 297 297;" xml:space="preserve">
<g>
	<path d="M161.625,228.699c-4.29,0.603-8.67,0.921-13.125,0.921c-4.455,0-8.835-0.318-13.126-0.921l-15.667,18.397
		c9.208,2.38,18.853,3.662,28.793,3.662c9.94,0,19.585-1.282,28.793-3.662L161.625,228.699z"/>
	<path d="M34.398,151.386c3.766,27.277,17.113,51.53,36.53,69.248l13.094-16.661c-16.317-15.387-27.152-36.523-29.222-60.142h76.485
		l11.396-14.501c1.402-1.784,3.548-2.826,5.817-2.826c2.269,0,4.415,1.042,5.817,2.826l11.396,14.501h76.485
		c-2.069,23.618-12.904,44.755-29.222,60.142l13.095,16.663c18.199-16.606,31.065-38.952,35.711-64.149
		c-9.368-3.559-16.045-12.624-16.045-23.225c0-10.275,6.272-19.114,15.19-22.887c-3.397-15.189-9.809-29.251-18.563-41.533
		c-2.124,0.592-4.358,0.916-6.669,0.916c-13.695,0-24.838-11.143-24.838-24.838c0-1.976,0.238-3.896,0.676-5.738
		c-12.387-8.13-26.422-13.939-41.492-16.803c-4.29,7.461-12.336,12.5-21.543,12.5s-17.253-5.039-21.543-12.5
		c-15.07,2.863-29.105,8.673-41.492,16.803c0.438,1.843,0.676,3.763,0.676,5.738c0,13.695-11.143,24.838-24.838,24.838
		c-2.312,0-4.547-0.324-6.671-0.918c-9.774,13.715-16.606,29.656-19.609,46.897c4.48,4.495,7.255,10.691,7.255,17.524
		C42.277,140.405,39.242,146.851,34.398,151.386z M222.037,76.964c10.312,12.914,17.295,28.593,19.648,45.729h-65.377
		L222.037,76.964z M159.069,42.082c18.03,2.025,34.532,9.165,48.02,19.934l-48.02,48.02V42.082z M137.931,42.082v67.953
		l-48.02-48.02C103.398,51.247,119.9,44.107,137.931,42.082z M74.963,76.964l45.729,45.729H55.314
		C57.668,105.557,64.651,89.878,74.963,76.964z"/>
	<path d="M270.576,143.303c5.537,0,10.041-4.504,10.041-10.041c0-5.536-4.504-10.041-10.041-10.041
		c-5.536,0-10.041,4.505-10.041,10.041C260.535,138.799,265.04,143.303,270.576,143.303z"/>
	<path d="M279.296,275.861h-28.643L148.5,145.876L46.347,275.861H17.704c-5.837,0-10.569,4.733-10.569,10.569
		c0,5.837,4.732,10.569,10.569,10.569h261.592c5.837,0,10.569-4.732,10.569-10.569C289.865,280.594,285.133,275.861,279.296,275.861
		z M142.867,197.079c1.406-1.651,3.464-2.603,5.633-2.603c2.169,0,4.227,0.951,5.633,2.603l64.036,78.782H78.831L142.867,197.079z"
		/>
	<path d="M235.697,54.961c5.537,0,10.041-4.505,10.041-10.041c0-5.537-4.504-10.041-10.041-10.041
		c-5.536,0-10.041,4.504-10.041,10.041C225.656,50.456,230.161,54.961,235.697,54.961z"/>
	<path d="M17.439,143.303c5.536,0,10.041-4.504,10.041-10.041c0-5.536-4.505-10.041-10.041-10.041
		c-5.536,0-10.041,4.505-10.041,10.041C7.398,138.799,11.903,143.303,17.439,143.303z"/>
	<path d="M61.303,54.961c5.536,0,10.041-4.505,10.041-10.041c0-5.537-4.505-10.041-10.041-10.041
		c-5.537,0-10.041,4.504-10.041,10.041C51.262,50.456,55.766,54.961,61.303,54.961z"/>
	<path d="M148.5,20.082c5.536,0,10.041-4.505,10.041-10.041C158.541,4.504,154.036,0,148.5,0c-5.536,0-10.041,4.504-10.041,10.041
		C138.459,15.577,142.964,20.082,148.5,20.082z"/>
</g>
<g>
</g>
<g>
</g>
<g>
</g>
<g>
</g>
<g>
</g>
<g>
</g>
<g>
</g>
<g>
</g>
<g>
</g>
<g>
</g>
<g>
</g>
<g>
</g>
<g>
</g>
<g>
</g>
<g>
</g>
</svg>
